<?xml version="1.0" encoding="utf-8"?>
<!-- Generator: Adobe Illustrator 26.3.1, SVG Export Plug-In . SVG Version: 6.00 Build 0)  -->
<svg version="1.1" xmlns="http://www.w3.org/2000/svg" xmlns:xlink="http://www.w3.org/1999/xlink" x="0px" y="0px"
	 viewBox="0 0 500 500" style="enable-background:new 0 0 500 500;" xml:space="preserve">
<style type="text/css">
	.st0{fill:#E62A2F;stroke:#000000;stroke-width:5;stroke-miterlimit:10;}
	.st1{fill:#FFFFFF;stroke:#000000;stroke-width:5;stroke-miterlimit:10;}
	.st2{fill:#E62A2F;stroke:#000000;stroke-width:3;stroke-miterlimit:10;}
	.st3{fill:#FFFFFF;stroke:#000000;stroke-width:3;stroke-miterlimit:10;}
</style>
<g id="Calque_1">
</g>
<g id="Calque_3">
</g>
<g id="Calque_4">
	<g>
		<circle class="st0" cx="250" cy="250" r="223.53"/>
		<g>
			<polygon class="st1" points="92.19,447.09 92.19,52.91 276.7,163.83 276.7,224.33 221.09,224.33 173.1,196.83 173.1,375.59 			
				"/>
			<polygon class="st1" points="407.81,52.91 407.81,447.09 223.3,336.17 223.3,275.67 278.91,275.67 326.9,303.17 326.9,124.41 			
				"/>
		</g>
		<circle class="st1" cx="250" cy="250" r="35.64"/>
	</g>
	<g>
		<circle class="st2" cx="-187.49" cy="372" r="110.18"/>
		<g>
			<polygon class="st3" points="-265.27,469.14 -265.27,274.86 -174.33,329.53 -174.33,359.35 -201.74,359.35 -225.39,345.79 
				-225.39,433.9 			"/>
			<polygon class="st3" points="-109.71,274.86 -109.71,469.14 -200.65,414.47 -200.65,384.65 -173.24,384.65 -149.59,398.21 
				-149.59,310.1 			"/>
		</g>
		<circle class="st3" cx="-187.49" cy="372" r="17.57"/>
	</g>
</g>
<g id="Calque_2">
</g>
</svg>
